<svg width="80" height="37" viewBox="0 0 80 37" fill="none" xmlns="http://www.w3.org/2000/svg">
<g clip-path="url(#clip0)">
<path d="M6.71122 16.2863C6.79694 15.8752 6.79694 15.8752 7.13814 15.8122C7.21202 15.1472 7.28703 14.4658 7.36373 13.785L7.26673 13.7591C7.20507 13.9776 7.14341 14.1961 7.08175 14.4146L7.0073 14.4309C7.00054 14.267 6.96952 14.0992 6.99151 13.9388C7.13476 12.883 7.30339 11.8311 7.43366 10.7742C7.49288 10.2933 7.46694 9.80285 7.50642 9.31915C7.57184 8.52068 7.65756 7.72335 7.73764 6.92601C7.79404 6.36629 7.85044 5.80658 7.91416 5.24799C7.97676 4.71024 8.19615 4.50865 8.73643 4.45966C9.04774 4.42982 9.35679 4.38252 9.72337 4.33635C9.70307 4.03002 9.68615 3.76706 9.66698 3.43033L8.98119 3.75467C9.1893 3.29575 9.42221 3.15441 9.78597 3.20847C9.88779 3.22926 9.99318 3.22462 10.0928 3.19496C10.3144 3.10768 10.5214 2.9838 10.7419 2.89201C11.7672 2.46463 12.7677 2.60202 13.7016 3.1257C14.3398 3.49067 14.8723 4.01446 15.2474 4.64605C15.9022 5.72437 16.3066 6.91362 16.7188 8.09724C16.914 8.66033 17.104 9.22342 17.267 9.79327C17.364 10.1311 17.3916 10.4898 17.4729 10.8339C17.5197 11.0315 17.5727 11.2466 17.6889 11.4054C17.9911 11.8176 18.0712 12.281 18.14 12.7692C18.2071 13.267 18.3656 13.7518 18.4547 14.2473C18.5878 14.9833 18.7446 15.7193 18.8044 16.4625C18.8929 17.5594 18.9036 18.6631 18.9493 19.7634C18.9634 20.1012 18.9736 20.4391 19.0057 20.7736C19.1343 22.1425 18.9358 23.4989 18.8642 24.8611C18.8123 25.8521 18.7863 26.8443 18.744 27.8364C18.717 28.4727 18.6572 29.109 18.6578 29.7459C18.6578 30.2848 18.7181 30.8236 18.761 31.362C18.7841 31.6536 18.9493 31.7499 19.2465 31.7775C21.4313 31.9814 23.6201 32.1604 25.7948 32.442C27.4269 32.6531 29.0387 33.0191 30.6646 33.2827C30.9923 33.3356 31.2072 33.4995 31.4345 33.6909C31.5687 33.8035 31.708 33.9116 31.8856 34.053C31.8816 34.0838 31.8796 34.1148 31.8794 34.1459C31.871 34.7461 31.699 35.1831 30.985 35.2445C30.7943 35.2608 30.6246 35.5187 30.3437 35.7513C30.1745 35.7017 29.8926 35.6206 29.6106 35.5373C29.2897 35.4421 28.9761 35.3121 28.6518 35.2557C27.3587 35.0266 26.0638 34.8053 24.765 34.6104C23.9909 34.4904 23.2113 34.4102 22.429 34.37C21.1556 34.3137 19.8793 34.2827 18.6047 34.2917C17.84 34.2968 17.0758 34.3875 16.3128 34.4607C15.2108 34.5631 14.1133 34.6859 13.0096 34.794C11.179 34.9703 9.35341 35.1916 7.55604 35.5823C5.97129 35.9191 4.40854 36.3194 2.84071 36.6967C2.69374 36.728 2.55005 36.7731 2.41153 36.8313C2.06751 36.9867 1.81034 36.9523 1.50918 36.6663C1.0439 36.226 0.500804 35.869 0 35.4815C0.206976 34.5913 0.889378 34.3154 1.59321 34.1025C2.43352 33.848 3.28511 33.6149 4.14122 33.4268C4.92457 33.2579 5.72315 33.1588 6.60576 33.0146L5.81902 31.8462L5.42763 31.9099C5.37969 31.5568 5.29904 31.2308 5.29622 30.9042C5.28857 28.9 5.40156 26.8973 5.6346 24.9067C5.7897 23.5136 5.83312 22.107 6.0119 20.7173C6.09255 20.0911 6.18109 19.4222 6.68866 18.8776C6.31193 18.6738 6.34633 18.3709 6.41062 18.0431C6.52342 17.4564 6.61816 16.8651 6.72306 16.2733C6.83586 16.337 6.94357 16.4028 7.07442 16.4822C7.0637 16.114 6.89507 16.1816 6.71122 16.2863ZM15.0991 32.0112C15.0991 31.7499 15.1042 31.5607 15.0991 31.3777C15.0771 30.6102 15.0297 29.8433 15.0337 29.0758C15.0376 28.3083 15.2593 27.56 15.1566 26.7897C15.1463 26.7142 15.1523 26.6374 15.1741 26.5644C15.4381 25.7108 15.3213 24.8143 15.4685 23.9494C15.6061 23.1386 15.4883 22.299 15.7725 21.5045C15.8323 21.3355 15.8052 21.1311 15.7838 20.9476C15.7358 20.5438 15.6326 20.1446 15.6146 19.7409C15.5751 18.9576 15.5892 18.1715 15.5582 17.3877C15.543 17.0369 15.5317 16.663 15.4042 16.3449C15.2125 15.8792 15.1707 15.4079 15.1578 14.9219C15.1461 14.7545 15.1152 14.589 15.0658 14.4286C14.975 14.0863 14.8448 13.7529 14.7839 13.4049C14.4799 11.7269 14.0039 10.0973 13.4303 8.49366C13.1985 7.84441 12.9792 7.19066 12.7344 6.54648C12.612 6.2366 12.4682 5.93556 12.3041 5.64553C12.1682 5.39608 11.9606 5.31613 11.6961 5.4828C11.6397 5.74351 11.5709 5.99578 11.5405 6.25198C11.4407 7.10676 11.3809 7.9666 11.2585 8.81856C11.0577 10.2263 10.7876 11.6284 10.6139 13.0418C10.5095 13.8864 10.4204 14.7254 10.2405 15.561C10.0764 16.3251 10.0347 17.1152 9.94445 17.8945C9.85196 18.6924 9.77526 19.492 9.67374 20.2882C9.57223 21.0641 9.40248 21.8333 9.33536 22.6115C9.20509 24.1031 9.10978 25.5987 9.02856 27.0943C8.96878 28.1794 8.93946 29.2667 8.92028 30.3535C8.91464 30.6857 8.9733 31.0219 9.02969 31.3513C9.06353 31.5528 9.09286 31.7083 8.98006 31.9256C8.73304 32.4037 8.94961 32.6785 9.47354 32.6261C10.9838 32.4759 12.4938 32.3228 14.0033 32.1666C14.3524 32.1238 14.6998 32.0658 15.0991 32.0112Z" fill="black"/>
<path d="M76.0676 14.4056C76.9626 14.6787 77.8046 14.9169 78.6319 15.1979C78.982 15.3264 79.3157 15.4955 79.6262 15.7019C79.7728 15.7942 79.9313 15.9761 79.9544 16.136C80.0497 16.7864 80.3492 17.4126 80.0734 18.1108C79.9217 18.492 79.9008 18.9498 79.9206 19.3682C79.9527 20.0439 79.717 20.6633 79.5196 21.2697C79.2376 22.1391 78.8248 22.9663 78.4661 23.811C78.0674 24.7496 77.4453 25.5537 76.8988 26.4012C76.6885 26.7278 76.5041 27.0899 76.23 27.3539C75.4675 28.086 74.8155 28.9379 73.8889 29.4937C73.4756 29.7426 73.0904 30.0388 72.6916 30.3124C72.2551 30.6126 71.7825 30.7291 71.2535 30.6204C71.0719 30.5827 70.879 30.6058 70.6895 30.5883C70.5 30.5709 70.3004 30.5793 70.1391 30.5033C69.5943 30.2465 69.0275 30.014 68.6677 29.483C68.5738 29.3434 68.4597 29.2184 68.3293 29.1119C67.7975 28.6834 67.5009 28.1186 67.3226 27.4744C67.2381 27.1681 67.1151 26.8719 67.0339 26.5645C66.6391 25.0869 66.4637 23.5885 66.6222 22.0597C66.7231 21.0918 66.7717 20.1154 66.929 19.157C67.1495 17.8112 67.4185 16.4705 67.7236 15.141C68.0451 13.7418 68.5211 12.3734 68.7647 10.9629C68.9457 9.91667 69.3591 8.95828 69.631 7.95035C69.9316 6.8343 70.4002 5.75936 70.8418 4.68442C71.3708 3.4 71.9996 2.1612 72.8721 1.06936C73.832 -0.123266 74.9926 -0.987612 76.6135 -1C76.9112 -1 77.1938 -0.978602 77.4792 -0.831072C77.7736 -0.681853 78.1131 -0.605835 78.4413 -0.542206C79.1057 -0.412132 79.6256 -0.124955 79.9076 0.534426C80.1687 1.15045 80.5466 1.71692 80.6915 2.38306C80.7169 2.49962 80.8128 2.60323 80.885 2.70627C81.0164 2.89378 81.0643 3.08805 80.8731 3.25247C80.7175 3.38705 80.7412 3.5267 80.7569 3.70295C80.8066 4.26041 80.8506 4.82068 80.8455 5.37927C80.8455 5.67264 80.7615 5.97502 80.6662 6.25657C80.4564 6.87597 80.2392 7.49537 79.9798 8.09957C79.6837 8.78654 79.3656 9.46676 79.0075 10.1228C78.6752 10.7277 78.3088 11.3133 77.91 11.8768C77.3743 12.6375 76.7962 13.3684 76.239 14.1145C76.1763 14.2082 76.1191 14.3054 76.0676 14.4056ZM73.8872 24.4782L73.6893 24.9997L73.8021 25.0301C73.8839 24.8482 74.0012 24.6748 73.8872 24.4467C74.0147 24.3819 74.2002 24.351 74.2606 24.2468C74.8415 23.2451 75.5177 22.2923 75.8882 21.1791C76.2226 20.1734 76.565 19.17 76.8966 18.1643C76.9163 18.1035 76.8921 18.028 76.8819 17.8332C76.6473 18.1097 76.4973 18.3141 76.318 18.4909C75.9423 18.862 75.6829 19.304 75.4376 19.7663C75.1923 20.2286 74.934 20.6892 74.6057 21.0895C74.2939 21.4702 73.9137 21.7928 73.7073 22.2557C73.6482 22.3667 73.5817 22.4735 73.5083 22.5755C73.3222 22.3317 73.5895 22.0271 73.3114 21.8255L72.9697 22.5513C72.889 22.1735 72.8766 21.8846 72.7616 21.6453C72.6465 21.406 72.4322 21.2326 72.2393 21.0034C72.2788 20.5951 72.2822 20.5935 72.0842 20.1103C72.0183 19.9498 72.0199 19.804 72.1728 19.7162C72.5552 19.496 72.5794 19.1384 72.5969 18.7094C72.4621 18.797 72.3223 18.8769 72.1784 18.9487C72.0092 19.0219 71.7955 19.1638 71.6646 19.1125C71.3449 18.9881 70.9721 19.0984 70.6828 18.8558C70.5824 18.7713 70.4228 18.7572 70.2361 18.6919C70.2203 19.0478 70.2361 19.3434 70.1893 19.63C70.0635 20.4217 69.8628 21.2067 69.7866 22.0001C69.7078 22.8382 69.6889 23.6808 69.7302 24.5216C69.7691 25.3347 70.3049 26.0555 70.2542 26.9001C70.2542 26.9294 70.2919 26.9609 70.3106 26.9919L70.7471 27.6614C71.1165 27.4925 71.5705 27.555 71.8389 27.0983C71.9331 26.9395 72.1891 26.8815 72.166 26.5977C72.1604 26.5296 72.3448 26.4288 72.457 26.3725C72.5444 26.3308 72.6555 26.3393 72.7272 26.3297C72.7029 26.1923 72.6386 26.0628 72.6775 26.011C73.0751 25.494 73.4823 24.9878 73.8872 24.4782ZM70.8858 15.6062C71.1182 15.3764 71.2806 15.2497 71.4001 15.0926C72.4717 13.7006 73.5528 12.3149 74.6018 10.9055C75.7701 9.34528 76.7224 7.63497 77.4329 5.82074C77.5807 5.44177 77.7194 5.04817 77.7792 4.64894C77.9085 3.85519 77.9275 3.04741 77.8356 2.24848C77.7792 1.80307 77.6602 1.68144 77.2265 1.75127C77.0624 1.78539 76.9044 1.84405 76.7578 1.92526C75.8854 2.36166 75.3423 3.1269 74.8404 3.91354C74.2848 4.78183 73.9013 5.73233 73.5314 6.69465C73.1716 7.62995 72.7418 8.53484 72.5416 9.52813C72.4768 9.85416 72.3042 10.1565 72.2151 10.4798C71.8914 11.6435 71.5763 12.8117 71.2699 13.9844C71.1362 14.4783 71.0319 14.9789 70.8858 15.6062ZM73.0142 19.0461L72.9319 18.9999C72.8975 19.0754 72.8636 19.1514 72.8292 19.2251L72.8992 19.2601L73.0142 19.0461Z" fill="black"/>
<path d="M33.277 22.7225C32.7943 23.4833 32.303 24.2519 31.8169 25.0244C31.6285 25.3246 31.4734 25.6467 31.267 25.9327C30.6281 26.8201 30.1662 27.7853 29.8137 28.8208C29.6501 29.3011 29.4144 29.7905 28.9593 30.1159H28.2137L27.9915 29.6705C27.5883 29.8468 27.5866 29.8473 27.3317 29.5016C27.2753 29.4267 27.251 29.3084 27.18 29.2707C26.3904 28.8501 26.5517 28.1366 26.7 27.5015C26.8827 26.7188 27.2279 25.9811 27.6588 25.2947C27.9864 24.7722 28.2972 24.2389 28.6068 23.7057C28.6632 23.6139 28.6694 23.4968 28.7117 23.3447C28.5662 23.3447 28.4551 23.3177 28.3643 23.3492C27.5719 23.6235 26.7852 23.6054 25.9956 23.3385C24.6235 22.8757 24.6455 22.8599 23.6529 21.678C23.1391 21.0665 23.0021 20.3463 22.834 19.6193C22.8216 19.5641 22.8261 19.5064 22.847 19.4538C23.1927 18.6378 23.3788 17.7431 24.0358 17.0809C24.1797 16.9362 24.2992 16.7673 24.4346 16.6141C24.4927 16.5455 24.5592 16.4844 24.6325 16.4322C25.091 16.1253 25.5523 15.8224 26.0481 15.4947C25.7509 15.2216 25.5213 15.4671 25.2664 15.4198L26.435 14.7666L26.651 15.2126C26.8844 15.1157 27.1021 15.0526 27.2928 14.9423C28.3496 14.3302 29.4979 14.3978 30.6388 14.5166C31.6866 14.6283 32.7007 14.9523 33.6188 15.4688C34.0547 15.7109 34.5606 15.8246 35.018 16.0319C35.2853 16.154 35.5013 16.3945 35.7726 16.502C36.2147 16.6772 36.354 16.9807 36.3162 17.4199C36.2976 17.6423 36.2959 17.8664 36.2982 18.09C36.3021 18.5185 36.314 18.947 36.323 19.3755C36.3303 19.7302 36.3676 20.0872 36.3388 20.4392C36.2734 21.245 36.5148 21.9967 36.7336 22.7445C36.9592 23.5137 37.284 24.2541 37.5231 25.0205C37.6359 25.3871 37.6495 25.7846 37.7188 26.2402L37.3021 26.0847L36.9327 26.6118C36.623 26.3691 36.3388 26.1574 35.9119 26.1191C35.2988 26.0628 35.0575 25.4625 34.6869 25.0565C34.2267 24.5498 34.0598 23.8988 33.7603 23.3138C33.6504 23.1004 33.6075 22.843 33.277 22.7225ZM31.3595 16.9959C30.7048 16.823 30.187 16.8117 29.6969 17.0629C29.0805 17.3788 28.4523 17.6823 27.8736 18.0573C27.0841 18.572 26.6639 19.3648 26.4581 20.268C26.3893 20.5715 26.5325 20.7297 26.85 20.728C27.3463 20.728 27.8161 20.6273 28.2036 20.2894C28.6683 19.8862 29.1561 19.5067 29.5909 19.0737C30.0353 18.6317 30.4312 18.1401 30.8407 17.6659C31.0082 17.4694 31.1542 17.2628 31.3595 16.9959V16.9959Z" fill="black"/>
<path d="M57.1972 28.7048C56.1567 28.6107 55.1703 28.3737 54.3982 27.7109C53.2235 26.7041 52.3121 25.5143 52.3775 23.8323C52.3944 23.4038 52.3262 22.9719 52.3104 22.5412C52.2998 22.3745 52.3161 22.2071 52.3589 22.0456C52.4875 21.6199 52.6313 21.201 52.7864 20.7821C53.153 19.8006 53.4592 18.7887 53.9228 17.854C54.3446 17.0037 54.9639 16.2638 55.6525 15.5842C56.2255 15.0211 56.9315 14.6748 57.5897 14.2496C57.6823 14.1862 57.7926 14.1535 57.905 14.1562C59.0419 14.2688 60.1851 14.3684 61.2369 14.8611C61.5189 14.9924 61.7653 15.2114 61.9949 15.4242C62.2531 15.6664 62.4404 15.9913 62.7173 16.2047C63.2813 16.6383 63.5576 17.2425 63.8509 17.8517C64.0201 18.2037 64.1892 18.5274 64.1413 18.9537C64.1052 19.2612 64.1977 19.5849 64.2423 19.9008C64.4329 21.2849 64.1182 22.5789 63.548 23.8284C63.5369 23.8642 63.5195 23.8977 63.4967 23.9275C63.3315 24.0829 63.0658 24.0722 62.9649 24.3695C62.8808 24.6156 62.618 24.7997 62.4415 25.0171C62.2757 25.2204 62.1206 25.4321 61.9582 25.6365C61.7958 25.8409 61.6328 26.0419 61.4692 26.2446C60.6475 27.2616 59.5873 27.9497 58.3832 28.4187C58.0087 28.5702 57.5942 28.6141 57.1972 28.7048ZM61.1128 19.6176C61.0795 18.6761 60.9284 17.9097 60.3424 17.2526C59.8687 16.7227 59.541 16.6591 58.9596 17.0668C57.8452 17.8478 57.1284 18.925 56.605 20.1452C56.0049 21.5445 55.7901 23.0232 55.838 24.5373C55.8482 24.8622 55.9683 25.1973 56.098 25.5019C56.2728 25.9113 56.4319 25.9524 56.8537 25.7834C57.112 25.6781 57.3613 25.5509 57.6145 25.4338C57.7414 25.3775 57.8886 25.3414 57.9918 25.2547C58.2495 25.039 58.4746 24.7845 58.7351 24.5734C59.3233 24.0964 59.8106 23.5502 60.092 22.8334C60.2753 22.3666 60.4868 21.9116 60.6814 21.4488C60.9414 20.826 61.1703 20.1964 61.1128 19.6176Z" fill="black"/>
<path d="M44.2524 26.194C43.9671 26.4868 43.6885 26.7875 43.3935 27.0684C43.2914 27.1659 43.1476 27.2216 43.0179 27.2858C42.8279 27.3793 42.6327 27.4632 42.3857 27.5758L42.1601 27.3742C42.0157 27.4384 41.8652 27.5623 41.7292 27.5476C41.6198 27.5364 41.5319 27.3534 41.4281 27.2537C41.0694 26.9096 40.6712 26.5983 40.3565 26.217C40.0835 25.8746 39.9575 25.438 40.0063 25.003C40.0898 24.1094 40.1755 23.2158 40.2725 22.3233C40.4028 21.1318 40.5646 19.9431 40.6786 18.7499C40.801 17.4627 40.8822 16.1715 40.9837 14.8826C40.9901 14.7514 41.0108 14.6213 41.0451 14.4946C41.1314 14.2181 41.3627 14.0199 41.6232 14.0531C42.3829 14.1494 43.1459 14.2057 43.8678 14.525C44.2299 14.6861 44.4177 14.9344 44.4205 15.2919C44.4273 16.1929 44.3996 17.0893 44.3805 17.988C44.3737 18.2831 44.35 18.5781 44.4301 18.9194C44.5237 18.8242 44.6444 18.7437 44.707 18.6311C45.4604 17.2508 46.3567 15.9533 47.3813 14.7598C47.6712 14.4265 47.9831 14.0976 48.533 14.0717C49.0512 14.0469 49.2204 14.3437 49.4353 14.7086C49.8036 14.6433 50.1685 14.3482 50.5869 14.6314C50.6309 14.744 50.667 14.913 50.751 15.0442C50.909 15.2976 50.8277 15.4856 50.6664 15.7024C50.3004 16.1929 49.9609 16.7025 49.6096 17.2031C49.2768 17.6766 48.9396 18.1462 48.613 18.6238C48.5304 18.7471 48.4653 18.8812 48.4196 19.0224C48.2955 19.3957 48.2002 19.7775 47.8466 20.0258C47.7631 20.0822 47.7259 20.2117 47.6735 20.3102C47.3842 20.853 47.101 21.3992 46.8066 21.9392C46.5438 22.4212 46.5433 22.5586 46.9713 22.8965C47.6041 23.3914 48.2403 23.8875 48.9159 24.3194C49.4009 24.6291 49.5492 25.061 49.6006 25.5729C49.613 25.699 49.6006 25.8274 49.6006 25.9862L49.146 26.3989C47.6605 26.3589 46.4271 25.6787 45.2225 24.8172L44.2276 26.2159L44.2524 26.194Z" fill="black"/>
<path d="M43.2524 27.194L43.2315 27.2137H43.5699C43.5857 27.4789 43.4328 27.5617 43.1751 27.6642C43.2078 27.4614 43.2298 27.328 43.2524 27.194Z" fill="black"/>
<path d="M74.0209 24.1252C74.1073 23.981 74.1933 23.8369 74.2786 23.6927L74.3796 23.749L74.1427 24.1927L74.0209 24.1252Z" fill="black"/>
<path d="M68.8413 24.9152V24.4827H68.8797V24.8988L68.8413 24.9152Z" fill="black"/>
</g>
<defs>
<clipPath id="clip0">
<rect width="80" height="36.9231" fill="white"/>
</clipPath>
</defs>
</svg>
